<svg xmlns="http://www.w3.org/2000/svg" viewBox="0 0 412.31 233.31"><defs><style>.cls-1{fill:#fff;}</style></defs><g id="Layer_2" data-name="Layer 2"><g id="Logo"><path class="cls-1" d="M71.79,41.52,73.33,40H87.21c11.27,0,18.28-6.84,18.28-17.86s-7-17.86-18.28-17.86H72.77V37.71l-2,2v-37H87.69c12.11,0,19.94,7.61,19.94,19.4s-7.83,19.4-19.94,19.4Z" transform="translate(-1.59 -1)"/><path class="cls-1" d="M71.77,3.72V37.3l0,0V3.72h0M101,8.18c3.6,3.19,5.61,8,5.61,13.94s-2,10.75-5.61,13.94c3.49-3.29,5.47-8.09,5.47-13.94s-2-10.65-5.47-13.94M87.69,1.72H69.75V42.15l4-4V5.26H87.21c10.68,0,17.28,6.48,17.28,16.86S97.89,39,87.21,39H73.77v-.85l-4,4v.37H87.69c12.72,0,20.94-8,20.94-20.4s-8.22-20.4-20.94-20.4Z" transform="translate(-1.59 -1)"/><path class="cls-1" d="M120.44,41.52l1-1.74v1.74Zm-.67-2.87-.36.63V2.72h2V39.59Z" transform="translate(-1.59 -1)"/><path class="cls-1" d="M120.43,3.72V39h0V3.72h0m2-2h-4v40.8h.3l1.93-3.38-1.93,3.38h3.72V1.72Z" transform="translate(-1.59 -1)"/><path class="cls-1" d="M155.31,42.24c-13.46,0-22.16-7.88-22.16-20.06S141.73,2,155,2A25,25,0,0,1,168.8,5.73L168,7.34a24.32,24.32,0,0,0-13-3.62c-12,0-19.72,7.2-19.72,18.34s8,18.46,20.32,18.46a23.62,23.62,0,0,0,13.5-3.88l.46-.3V23.58H157.51L157.39,22h14.14V37.18C167.26,40.49,161.67,42.24,155.31,42.24Z" transform="translate(-1.59 -1)"/><path class="cls-1" d="M139.75,8.29a18.7,18.7,0,0,0-5.46,13.77c0,5.79,2,10.58,5.58,14-3.66-3.32-5.72-8.07-5.72-13.84s2-10.55,5.6-13.89M155,1c-13.86,0-22.86,8.4-22.86,21.18s9.06,21.06,23.16,21.06c6.78,0,12.72-1.92,17.22-5.58V21h-19v2l3.93-.3-3.93.3v1.54h15.06V35.8a22.72,22.72,0,0,1-13,3.72c-11.82,0-19.32-6.84-19.32-17.46,0-10.44,7.32-17.34,18.72-17.34A23.29,23.29,0,0,1,168.45,8.8l1.62-3.42A25.88,25.88,0,0,0,155,1Z" transform="translate(-1.59 -1)"/><rect class="cls-1" x="182.02" y="1.72" width="2.02" height="38.8"/><path class="cls-1" d="M184.63,3.72v36.8h0V3.72h0m2-2h-4v40.8h4V1.72Z" transform="translate(-1.59 -1)"/><path class="cls-1" d="M242.89,3.72v36.8h0V3.72h0m2-2h-6L221.73,37.36,204.51,1.72h-5.94v40.8h3.9V6.22L220,42.52h3.3L240.86,6.1V42.52h4V1.72Z" transform="translate(-1.59 -1)"/><path class="cls-1" d="M276.81,42.24c-12.68,0-21.2-8.09-21.2-20.12S264.13,2,276.81,2,298,10.09,298,22.12,289.49,42.24,276.81,42.24Zm0-38.52c-11.4,0-19.06,7.39-19.06,18.4s7.66,18.4,19.06,18.4,19.05-7.4,19.05-18.4S288.21,3.72,276.81,3.72Z" transform="translate(-1.59 -1)"/><path class="cls-1" d="M260.05,10.71a19.89,19.89,0,0,0-3.3,11.41A19.9,19.9,0,0,0,260,33.52a19.27,19.27,0,0,1-3.43-11.4,19.29,19.29,0,0,1,3.44-11.41m33.51,0A19.22,19.22,0,0,1,297,22.12a19.27,19.27,0,0,1-3.43,11.4,19.9,19.9,0,0,0,3.29-11.4,19.89,19.89,0,0,0-3.3-11.41M276.81,1c-13.26,0-22.2,8.52-22.2,21.12s8.94,21.12,22.2,21.12S299,34.72,299,22.12,290.07,1,276.81,1Zm0,38.52c-10.8,0-18.06-7-18.06-17.4S266,4.72,276.81,4.72s18.05,7,18.05,17.4-7.25,17.4-18.05,17.4Z" transform="translate(-1.59 -1)"/><polygon class="cls-1" points="341.33 40.52 310.1 2.04 310.1 40.52 308.2 40.52 308.2 1.72 312.24 1.72 341.8 38.16 341.8 1.72 343.69 1.72 343.69 40.52 341.33 40.52"/><polygon class="cls-1" points="344.69 0.72 340.8 0.72 340.8 35.34 312.72 0.72 307.2 0.72 307.2 41.52 311.1 41.52 311.1 4.86 340.85 41.52 344.69 41.52 344.69 0.72 344.69 0.72"/><path class="cls-1" d="M41.16,113.52l-5.58-11.58H10.74L5.22,113.52h-2l18.66-38.8h2.82l18.66,38.8ZM11.47,100.4H34.85L23.19,75.77Z" transform="translate(-1.59 -1)"/><path class="cls-1" d="M25.29,73.72H21.21L1.59,114.52H5.85l5.52-11.58H35l5.58,11.58h4.38L25.29,73.72ZM13.05,99.4,23.19,78.1,33.27,99.4Z" transform="translate(-1.59 -1)"/><path class="cls-1" d="M54.43,113.52V74.72H71.37c12.11,0,19.94,7.61,19.94,19.4s-7.83,19.4-19.94,19.4Zm2-1.54H70.89c11.27,0,18.28-6.84,18.28-17.86s-7-17.86-18.28-17.86H56.45Z" transform="translate(-1.59 -1)"/><path class="cls-1" d="M55.45,75.72v36.8h0V75.72h0M84.7,80.18c3.6,3.19,5.61,8,5.61,13.94s-2,10.75-5.61,13.94c3.49-3.29,5.47-8.09,5.47-13.94s-2-10.65-5.47-13.94M71.37,73.72H53.43v40.8H71.37c12.72,0,20.94-8,20.94-20.4s-8.22-20.4-20.94-20.4ZM57.45,111V77.26H70.89c10.68,0,17.28,6.48,17.28,16.86S81.57,111,70.89,111Z" transform="translate(-1.59 -1)"/><polygon class="cls-1" points="114.04 112.52 96.12 73.72 98.36 73.72 115.56 111.05 132.76 73.72 134.81 73.72 116.84 112.52 114.04 112.52"/><path class="cls-1" d="M99.31,75.72l15.26,33.11L99.28,75.72h0m38.66-2h-4.26l-16.56,35.94L100.59,73.72H96.15L115,114.52h4.08L138,73.72Z" transform="translate(-1.59 -1)"/><polygon class="cls-1" points="145.9 112.52 145.9 73.72 178.94 73.72 178.94 75.26 147.92 75.26 147.92 92.08 175.04 92.08 175.04 93.62 147.92 93.62 147.92 110.98 178.94 110.98 178.94 112.52 145.9 112.52"/><path class="cls-1" d="M148.51,75.72v36.8h0V75.72h0m33-2h-35v40.8h35V111h-31V95.62h27.12V92.08H150.51V77.26h31V73.72Z" transform="translate(-1.59 -1)"/><polygon class="cls-1" points="223.07 112.52 191.84 74.04 191.84 112.52 189.94 112.52 189.94 73.72 193.98 73.72 223.54 110.16 223.54 73.72 225.44 73.72 225.44 112.52 223.07 112.52"/><polygon class="cls-1" points="226.44 72.72 222.54 72.72 222.54 107.34 194.46 72.72 188.94 72.72 188.94 113.52 192.84 113.52 192.84 76.86 222.6 113.52 226.44 113.52 226.44 72.72 226.44 72.72"/><polygon class="cls-1" points="252.7 112.52 252.7 75.26 235.9 75.26 235.9 73.72 271.58 73.72 271.58 75.26 254.72 75.26 254.72 112.52 252.7 112.52"/><path class="cls-1" d="M255.31,75.72v36.8h0V75.72h0m18.86-2H236.49v3.54h16.8v37.26h4V77.26h16.86V73.72Z" transform="translate(-1.59 -1)"/><path class="cls-1" d="M300.75,114.24c-11.43,0-17.72-5.14-17.72-14.48v-25h2V99.16c0,6.09,2.72,13.36,15.7,13.36s15.76-7.27,15.76-13.36V74.72h1.9v25C318.41,109.07,312.14,114.24,300.75,114.24Z" transform="translate(-1.59 -1)"/><path class="cls-1" d="M284.05,75.72V99.16c0,5.1,1.79,8.93,5.2,11.35-4.11-2.69-5.22-7-5.22-10.75v-24h0M316.52,105c-.1.25-.2.5-.31.74.11-.25.21-.49.31-.74m2.89-31.31h-3.9V99.16c0,8.16-5.1,12.36-14.76,12.36s-14.7-4.2-14.7-12.36V73.72h-4v26c0,9.9,6.72,15.48,18.72,15.48s18.66-5.64,18.66-15.54v-26Z" transform="translate(-1.59 -1)"/><path class="cls-1" d="M365.63,113.52l-13-17.46h-18.9v17.46h-2V74.72h23.36c7.71,0,12,3.78,12,10.64,0,6.4-3.5,10.08-10.13,10.64l-1.79.15,12.91,17.37Zm-31.86-19h20.5c7.07,0,10.66-3.08,10.66-9.16s-3.59-9.1-10.66-9.1h-20.5Z" transform="translate(-1.59 -1)"/><path class="cls-1" d="M332.77,75.72v36.8h0V75.72h0m31,2.92a9.3,9.3,0,0,1,2.31,6.72,9.47,9.47,0,0,1-2.36,6.82,10.19,10.19,0,0,0,2.22-6.82,10.13,10.13,0,0,0-2.17-6.72m-8.65-4.92H330.75v40.8h4V97.06h17.4l13,17.46h4.92L357,97c7.08-.6,11-4.74,11-11.64,0-7.44-4.68-11.64-13-11.64Zm-20.34,19.8V77.26h19.5c6.48,0,9.66,2.64,9.66,8.1s-3.18,8.16-9.66,8.16Z" transform="translate(-1.59 -1)"/><polygon class="cls-1" points="378.28 112.52 378.28 73.72 411.31 73.72 411.31 75.26 380.3 75.26 380.3 92.08 407.42 92.08 407.42 93.62 380.3 93.62 380.3 110.98 411.31 110.98 411.31 112.52 378.28 112.52"/><path class="cls-1" d="M380.89,75.72v36.8h0V75.72h0m33-2h-35v40.8h35V111h-31V95.62H410V92.08H382.89V77.26h31V73.72Z" transform="translate(-1.59 -1)"/><polygon class="cls-1" points="173.32 184.52 173.32 147.26 156.52 147.26 156.52 145.72 192.2 145.72 192.2 147.26 175.34 147.26 175.34 184.52 173.32 184.52"/><path class="cls-1" d="M175.93,147.72v36.8h0v-36.8h0m18.86-2H157.11v3.54h16.8v37.26h4V149.26h16.86v-3.54Z" transform="translate(-1.59 -1)"/><path class="cls-1" d="M238.19,185.52l-13-17.46h-18.9v17.46h-2v-38.8h23.36c7.71,0,12,3.78,12,10.64,0,6.4-3.5,10.08-10.13,10.64l-1.79.15,12.91,17.37Zm-31.86-19h20.5c7.07,0,10.66-3.08,10.66-9.16s-3.59-9.1-10.66-9.1h-20.5Z" transform="translate(-1.59 -1)"/><path class="cls-1" d="M205.33,147.72v36.8h0v-36.8h0m31,2.92a9.3,9.3,0,0,1,2.31,6.72,9.47,9.47,0,0,1-2.36,6.82,11.54,11.54,0,0,0,0-13.54m-8.65-4.92H203.31v40.8h4V169.06h17.4l13,17.46h4.92l-13-17.52c7.08-.6,11-4.74,11-11.64,0-7.44-4.68-11.64-13-11.64Zm-20.34,19.8V149.26h19.5c6.48,0,9.66,2.64,9.66,8.1s-3.18,8.16-9.66,8.16Z" transform="translate(-1.59 -1)"/><rect class="cls-1" x="250.84" y="145.72" width="2.02" height="38.8"/><path class="cls-1" d="M253.45,147.72v36.8h0v-36.8h0m2-2h-4v40.8h4v-40.8Z" transform="translate(-1.59 -1)"/><polygon class="cls-1" points="207.07 233.31 83.31 165.17 131.6 165.17 131.6 167.17 91.09 167.17 207.07 231.03 323.06 167.17 282.55 167.17 282.55 165.17 330.84 165.17 207.07 233.31"/></g></g></svg>