<svg xmlns="http://www.w3.org/2000/svg" viewBox="0 0 412.31 233.31"><defs><style>.cls-1{fill:none;stroke:#000;stroke-miterlimit:10;stroke-width:2px;}</style></defs><g id="Layer_2" data-name="Layer 2"><g id="Logo"><path d="M107,21.12c0,12.42-8.22,20.4-20.94,20.4H68.16V.72H86.1C98.82.72,107,8.7,107,21.12Zm-4.14,0c0-10.38-6.6-16.86-17.28-16.86H72.18V38H85.62C96.3,38,102.9,31.5,102.9,21.12Z"/><path d="M116.82.72h4v40.8h-4Z"/><path d="M170.94,36.66c-4.5,3.66-10.44,5.58-17.22,5.58-14.1,0-23.16-8.34-23.16-21.06S139.56,0,153.42,0a25.88,25.88,0,0,1,15.06,4.38L166.86,7.8a23.29,23.29,0,0,0-13.44-4.08c-11.4,0-18.72,6.9-18.72,17.34,0,10.62,7.5,17.46,19.32,17.46a22.72,22.72,0,0,0,13-3.72V23.58H151.92V20h19Z"/><path d="M181,.72h4v40.8h-4Z"/><path d="M243.29,41.52h-4V5.1L221.7,41.52h-3.3L200.88,5.22v36.3H197V.72h5.94l17.22,35.64L237.29.72h6Z"/><path d="M253,21.12C253,8.52,262,0,275.21,0s22.2,8.52,22.2,21.12-8.94,21.12-22.2,21.12S253,33.72,253,21.12Zm40.25,0c0-10.44-7.26-17.4-18.06-17.4s-18,7-18,17.4,7.26,17.4,18,17.4S293.27,31.56,293.27,21.12Z"/><path d="M344.69.72v40.8h-3.84L311.1,4.86V41.52h-3.9V.72h5.52l28.07,34.62V.72Z"/><path d="M33.36,101.94H9.78L4.26,113.52H0l19.62-40.8H23.7l19.62,40.8H38.94ZM11.46,98.4H31.68L21.6,77.1Z"/><path d="M90.72,93.12c0,12.42-8.22,20.4-20.94,20.4H51.84V72.72H69.78C82.5,72.72,90.72,80.7,90.72,93.12Zm-4.14,0c0-10.38-6.6-16.86-17.28-16.86H55.86V110H69.3C80,110,86.58,103.5,86.58,93.12Z"/><path d="M136.38,72.72l-18.9,40.8H113.4L94.56,72.72H99l16.56,35.94,16.56-35.94Z"/><path d="M148.92,76.26V91.08H176v3.54H148.92V110h31v3.54h-35V72.72h35v3.54Z"/><path d="M226.44,72.72v40.8H222.6L192.84,76.86v36.66h-3.9V72.72h5.52l28.08,34.62V72.72Z"/><path d="M272.58,76.26H255.72v37.26h-4V76.26H234.9V72.72h37.68Z"/><path d="M280.44,98.76v-26h4V98.16c0,8.16,5.1,12.36,14.7,12.36s14.76-4.2,14.76-12.36V72.72h3.9v26c0,9.9-6.72,15.54-18.66,15.54S280.44,108.66,280.44,98.76Z"/><path d="M363.54,113.52l-13-17.46h-17.4v17.46h-4V72.72h24.36c8.28,0,13,4.2,13,11.64,0,6.9-4,11-11,11.64l13,17.52Zm-30.36-21h19.5c6.48,0,9.66-2.64,9.66-8.16s-3.18-8.1-9.66-8.1h-19.5Z"/><path d="M381.3,76.26V91.08h27.12v3.54H381.3V110h31v3.54h-35V72.72h35v3.54Z"/><path d="M193.2,148.26H176.34v37.26h-4V148.26h-16.8v-3.54H193.2Z"/><path d="M236.1,185.52l-13-17.46h-17.4v17.46h-4v-40.8h24.36c8.28,0,13,4.2,13,11.64,0,6.9-4,11-11,11.64l13,17.52Zm-30.36-21h19.5c6.48,0,9.66-2.64,9.66-8.16s-3.18-8.1-9.66-8.1h-19.5Z"/><path d="M249.84,144.72h4v40.8h-4Z"/><polyline class="cls-1" points="282.55 166.17 326.95 166.17 207.07 232.17 87.2 166.17 131.6 166.17"/></g></g></svg>